<svg xmlns="http://www.w3.org/2000/svg" width="740" height="300" viewBox="0 0 740 300" role="img" aria-labelledby="title desc">
<title id="title">Lag-specific tangent references</title>
<desc id="desc">At each of the current, 25-volume, and 50-volume lags, a reconstructed correlation is compared with its reconstructed fold-trained reference to produce a tangent matrix. Six-by-six excerpts are shown from the full 39-by-39 matrices. All three tangents become 2340 coordinates, clipped and reduced to 64 whitened PCA scores.</desc>
<rect width="740" height="300" fill="#ffffff"/>
<text x="24.00" y="27.00" fill="#235969" font-size="11" font-weight="700" text-anchor="start" font-family="-apple-system,BlinkMacSystemFont,Segoe UI,Arial,sans-serif">FIGURE 04.1 / TANGENT REPRESENTATION</text>
<text x="716.00" y="27.00" fill="#5a6669" font-size="11" font-weight="400" text-anchor="end" font-family="-apple-system,BlinkMacSystemFont,Segoe UI,Arial,sans-serif">3 × 780 → 2,340 → 64</text>
<line x1="24.00" y1="39.00" x2="716.00" y2="39.00" stroke="#d5dcda" stroke-width="1" opacity="1"/>
<text x="141.00" y="61.00" fill="#172126" font-size="11" font-weight="600" text-anchor="middle" font-family="-apple-system,BlinkMacSystemFont,Segoe UI,Arial,sans-serif">now</text>
<rect x="105.00" y="78.00" width="7.93" height="7.93" fill="#ad673d"/>
<rect x="112.83" y="78.00" width="7.93" height="7.93" fill="#d6b39e"/>
<rect x="120.67" y="78.00" width="7.93" height="7.93" fill="#a4b8c8"/>
<rect x="128.50" y="78.00" width="7.93" height="7.93" fill="#cea48b"/>
<rect x="136.33" y="78.00" width="7.93" height="7.93" fill="#e5cfc2"/>
<rect x="144.17" y="78.00" width="7.93" height="7.93" fill="#a5b9c8"/>
<rect x="105.00" y="85.83" width="7.93" height="7.93" fill="#d6b39e"/>
<rect x="112.83" y="85.83" width="7.93" height="7.93" fill="#ad673d"/>
<rect x="120.67" y="85.83" width="7.93" height="7.93" fill="#88a2b6"/>
<rect x="128.50" y="85.83" width="7.93" height="7.93" fill="#e4cec0"/>
<rect x="136.33" y="85.83" width="7.93" height="7.93" fill="#faf6f3"/>
<rect x="144.17" y="85.83" width="7.93" height="7.93" fill="#ebf0f3"/>
<rect x="105.00" y="93.67" width="7.93" height="7.93" fill="#a4b8c8"/>
<rect x="112.83" y="93.67" width="7.93" height="7.93" fill="#88a2b6"/>
<rect x="120.67" y="93.67" width="7.93" height="7.93" fill="#ad673d"/>
<rect x="128.50" y="93.67" width="7.93" height="7.93" fill="#d5dfe6"/>
<rect x="136.33" y="93.67" width="7.93" height="7.93" fill="#9cb2c3"/>
<rect x="144.17" y="93.67" width="7.93" height="7.93" fill="#e9d6ca"/>
<rect x="105.00" y="101.50" width="7.93" height="7.93" fill="#cea48b"/>
<rect x="112.83" y="101.50" width="7.93" height="7.93" fill="#e4cec0"/>
<rect x="120.67" y="101.50" width="7.93" height="7.93" fill="#d5dfe6"/>
<rect x="128.50" y="101.50" width="7.93" height="7.93" fill="#ad673d"/>
<rect x="136.33" y="101.50" width="7.93" height="7.93" fill="#e5ebef"/>
<rect x="144.17" y="101.50" width="7.93" height="7.93" fill="#fefdfd"/>
<rect x="105.00" y="109.33" width="7.93" height="7.93" fill="#e5cfc2"/>
<rect x="112.83" y="109.33" width="7.93" height="7.93" fill="#faf6f3"/>
<rect x="120.67" y="109.33" width="7.93" height="7.93" fill="#9cb2c3"/>
<rect x="128.50" y="109.33" width="7.93" height="7.93" fill="#e5ebef"/>
<rect x="136.33" y="109.33" width="7.93" height="7.93" fill="#ad673d"/>
<rect x="144.17" y="109.33" width="7.93" height="7.93" fill="#7d9ab0"/>
<rect x="105.00" y="117.17" width="7.93" height="7.93" fill="#a5b9c8"/>
<rect x="112.83" y="117.17" width="7.93" height="7.93" fill="#ebf0f3"/>
<rect x="120.67" y="117.17" width="7.93" height="7.93" fill="#e9d6ca"/>
<rect x="128.50" y="117.17" width="7.93" height="7.93" fill="#fefdfd"/>
<rect x="136.33" y="117.17" width="7.93" height="7.93" fill="#7d9ab0"/>
<rect x="144.17" y="117.17" width="7.93" height="7.93" fill="#ad673d"/>
<rect x="105.00" y="78.00" width="47.00" height="47.00" fill="none" stroke="#d5dcda" stroke-width="1"/>
<rect x="105.00" y="134.00" width="7.93" height="7.93" fill="#dbbca9"/>
<rect x="112.83" y="134.00" width="7.93" height="7.93" fill="#fbf8f6"/>
<rect x="120.67" y="134.00" width="7.93" height="7.93" fill="#fbf7f5"/>
<rect x="128.50" y="134.00" width="7.93" height="7.93" fill="#f1e6df"/>
<rect x="136.33" y="134.00" width="7.93" height="7.93" fill="#fbf9f7"/>
<rect x="144.17" y="134.00" width="7.93" height="7.93" fill="#fcf9f7"/>
<rect x="105.00" y="141.83" width="7.93" height="7.93" fill="#fbf8f6"/>
<rect x="112.83" y="141.83" width="7.93" height="7.93" fill="#ddc0af"/>
<rect x="120.67" y="141.83" width="7.93" height="7.93" fill="#f8fafb"/>
<rect x="128.50" y="141.83" width="7.93" height="7.93" fill="#fefefd"/>
<rect x="136.33" y="141.83" width="7.93" height="7.93" fill="#fdfcfb"/>
<rect x="144.17" y="141.83" width="7.93" height="7.93" fill="#fdfefe"/>
<rect x="105.00" y="149.67" width="7.93" height="7.93" fill="#fbf7f5"/>
<rect x="112.83" y="149.67" width="7.93" height="7.93" fill="#f8fafb"/>
<rect x="120.67" y="149.67" width="7.93" height="7.93" fill="#dbbdab"/>
<rect x="128.50" y="149.67" width="7.93" height="7.93" fill="#faf6f3"/>
<rect x="136.33" y="149.67" width="7.93" height="7.93" fill="#fafbfc"/>
<rect x="144.17" y="149.67" width="7.93" height="7.93" fill="#fffefe"/>
<rect x="105.00" y="157.50" width="7.93" height="7.93" fill="#f1e6df"/>
<rect x="112.83" y="157.50" width="7.93" height="7.93" fill="#fefefd"/>
<rect x="120.67" y="157.50" width="7.93" height="7.93" fill="#faf6f3"/>
<rect x="128.50" y="157.50" width="7.93" height="7.93" fill="#d9b9a5"/>
<rect x="136.33" y="157.50" width="7.93" height="7.93" fill="#fefefe"/>
<rect x="144.17" y="157.50" width="7.93" height="7.93" fill="#f9f4f1"/>
<rect x="105.00" y="165.33" width="7.93" height="7.93" fill="#fbf9f7"/>
<rect x="112.83" y="165.33" width="7.93" height="7.93" fill="#fdfcfb"/>
<rect x="120.67" y="165.33" width="7.93" height="7.93" fill="#fafbfc"/>
<rect x="128.50" y="165.33" width="7.93" height="7.93" fill="#fefefe"/>
<rect x="136.33" y="165.33" width="7.93" height="7.93" fill="#dbbdab"/>
<rect x="144.17" y="165.33" width="7.93" height="7.93" fill="#fefefe"/>
<rect x="105.00" y="173.17" width="7.93" height="7.93" fill="#fcf9f7"/>
<rect x="112.83" y="173.17" width="7.93" height="7.93" fill="#fdfefe"/>
<rect x="120.67" y="173.17" width="7.93" height="7.93" fill="#fffefe"/>
<rect x="128.50" y="173.17" width="7.93" height="7.93" fill="#f9f4f1"/>
<rect x="136.33" y="173.17" width="7.93" height="7.93" fill="#fefefe"/>
<rect x="144.17" y="173.17" width="7.93" height="7.93" fill="#dcbfad"/>
<rect x="105.00" y="134.00" width="47.00" height="47.00" fill="none" stroke="#d5dcda" stroke-width="1"/>
<rect x="105.00" y="190.00" width="7.93" height="7.93" fill="#fcfaf8"/>
<rect x="112.83" y="190.00" width="7.93" height="7.93" fill="#f0e4dc"/>
<rect x="120.67" y="190.00" width="7.93" height="7.93" fill="#c9d5de"/>
<rect x="128.50" y="190.00" width="7.93" height="7.93" fill="#f6eeea"/>
<rect x="136.33" y="190.00" width="7.93" height="7.93" fill="#f8f2ee"/>
<rect x="144.17" y="190.00" width="7.93" height="7.93" fill="#a9bdcb"/>
<rect x="105.00" y="197.83" width="7.93" height="7.93" fill="#f0e4dc"/>
<rect x="112.83" y="197.83" width="7.93" height="7.93" fill="#faf6f4"/>
<rect x="120.67" y="197.83" width="7.93" height="7.93" fill="#bdccd7"/>
<rect x="128.50" y="197.83" width="7.93" height="7.93" fill="#fefefe"/>
<rect x="136.33" y="197.83" width="7.93" height="7.93" fill="#f9fafb"/>
<rect x="144.17" y="197.83" width="7.93" height="7.93" fill="#f0f3f6"/>
<rect x="105.00" y="205.67" width="7.93" height="7.93" fill="#c9d5de"/>
<rect x="112.83" y="205.67" width="7.93" height="7.93" fill="#bdccd7"/>
<rect x="120.67" y="205.67" width="7.93" height="7.93" fill="#d4dde5"/>
<rect x="128.50" y="205.67" width="7.93" height="7.93" fill="#dde4ea"/>
<rect x="136.33" y="205.67" width="7.93" height="7.93" fill="#e5ebef"/>
<rect x="144.17" y="205.67" width="7.93" height="7.93" fill="#f8f1ed"/>
<rect x="105.00" y="213.50" width="7.93" height="7.93" fill="#f6eeea"/>
<rect x="112.83" y="213.50" width="7.93" height="7.93" fill="#fefefe"/>
<rect x="120.67" y="213.50" width="7.93" height="7.93" fill="#dde4ea"/>
<rect x="128.50" y="213.50" width="7.93" height="7.93" fill="#e6ebf0"/>
<rect x="136.33" y="213.50" width="7.93" height="7.93" fill="#eef2f5"/>
<rect x="144.17" y="213.50" width="7.93" height="7.93" fill="#cad6df"/>
<rect x="105.00" y="221.33" width="7.93" height="7.93" fill="#f8f2ee"/>
<rect x="112.83" y="221.33" width="7.93" height="7.93" fill="#f9fafb"/>
<rect x="120.67" y="221.33" width="7.93" height="7.93" fill="#e5ebef"/>
<rect x="128.50" y="221.33" width="7.93" height="7.93" fill="#eef2f5"/>
<rect x="136.33" y="221.33" width="7.93" height="7.93" fill="#b7c7d3"/>
<rect x="144.17" y="221.33" width="7.93" height="7.93" fill="#bfcdd8"/>
<rect x="105.00" y="229.17" width="7.93" height="7.93" fill="#a9bdcb"/>
<rect x="112.83" y="229.17" width="7.93" height="7.93" fill="#f0f3f6"/>
<rect x="120.67" y="229.17" width="7.93" height="7.93" fill="#f8f1ed"/>
<rect x="128.50" y="229.17" width="7.93" height="7.93" fill="#cad6df"/>
<rect x="136.33" y="229.17" width="7.93" height="7.93" fill="#bfcdd8"/>
<rect x="144.17" y="229.17" width="7.93" height="7.93" fill="#fefeff"/>
<rect x="105.00" y="190.00" width="47.00" height="47.00" fill="none" stroke="#d5dcda" stroke-width="1"/>
<text x="163.00" y="105.00" fill="#5a6669" font-size="10" font-weight="400" text-anchor="start" font-family="-apple-system,BlinkMacSystemFont,Segoe UI,Arial,sans-serif">state</text>
<text x="163.00" y="161.00" fill="#5a6669" font-size="10" font-weight="400" text-anchor="start" font-family="-apple-system,BlinkMacSystemFont,Segoe UI,Arial,sans-serif">training</text>
<text x="163.00" y="217.00" fill="#5a6669" font-size="10" font-weight="400" text-anchor="start" font-family="-apple-system,BlinkMacSystemFont,Segoe UI,Arial,sans-serif">log map</text>
<text x="310.00" y="61.00" fill="#172126" font-size="11" font-weight="600" text-anchor="middle" font-family="-apple-system,BlinkMacSystemFont,Segoe UI,Arial,sans-serif">−25 volumes</text>
<rect x="274.00" y="78.00" width="7.93" height="7.93" fill="#ad673d"/>
<rect x="281.83" y="78.00" width="7.93" height="7.93" fill="#e8edf1"/>
<rect x="289.67" y="78.00" width="7.93" height="7.93" fill="#ffffff"/>
<rect x="297.50" y="78.00" width="7.93" height="7.93" fill="#d3ae97"/>
<rect x="305.33" y="78.00" width="7.93" height="7.93" fill="#fcfdfd"/>
<rect x="313.17" y="78.00" width="7.93" height="7.93" fill="#d6dfe6"/>
<rect x="274.00" y="85.83" width="7.93" height="7.93" fill="#e8edf1"/>
<rect x="281.83" y="85.83" width="7.93" height="7.93" fill="#ad673d"/>
<rect x="289.67" y="85.83" width="7.93" height="7.93" fill="#8fa8bb"/>
<rect x="297.50" y="85.83" width="7.93" height="7.93" fill="#a0b6c6"/>
<rect x="305.33" y="85.83" width="7.93" height="7.93" fill="#ddbfae"/>
<rect x="313.17" y="85.83" width="7.93" height="7.93" fill="#91aabc"/>
<rect x="274.00" y="93.67" width="7.93" height="7.93" fill="#ffffff"/>
<rect x="281.83" y="93.67" width="7.93" height="7.93" fill="#8fa8bb"/>
<rect x="289.67" y="93.67" width="7.93" height="7.93" fill="#ad673d"/>
<rect x="297.50" y="93.67" width="7.93" height="7.93" fill="#e4cec0"/>
<rect x="305.33" y="93.67" width="7.93" height="7.93" fill="#6e8fa7"/>
<rect x="313.17" y="93.67" width="7.93" height="7.93" fill="#ca9c81"/>
<rect x="274.00" y="101.50" width="7.93" height="7.93" fill="#d3ae97"/>
<rect x="281.83" y="101.50" width="7.93" height="7.93" fill="#a0b6c6"/>
<rect x="289.67" y="101.50" width="7.93" height="7.93" fill="#e4cec0"/>
<rect x="297.50" y="101.50" width="7.93" height="7.93" fill="#ad673d"/>
<rect x="305.33" y="101.50" width="7.93" height="7.93" fill="#c9d5de"/>
<rect x="313.17" y="101.50" width="7.93" height="7.93" fill="#edded5"/>
<rect x="274.00" y="109.33" width="7.93" height="7.93" fill="#fcfdfd"/>
<rect x="281.83" y="109.33" width="7.93" height="7.93" fill="#ddbfae"/>
<rect x="289.67" y="109.33" width="7.93" height="7.93" fill="#6e8fa7"/>
<rect x="297.50" y="109.33" width="7.93" height="7.93" fill="#c9d5de"/>
<rect x="305.33" y="109.33" width="7.93" height="7.93" fill="#ad673d"/>
<rect x="313.17" y="109.33" width="7.93" height="7.93" fill="#7b98af"/>
<rect x="274.00" y="117.17" width="7.93" height="7.93" fill="#d6dfe6"/>
<rect x="281.83" y="117.17" width="7.93" height="7.93" fill="#91aabc"/>
<rect x="289.67" y="117.17" width="7.93" height="7.93" fill="#ca9c81"/>
<rect x="297.50" y="117.17" width="7.93" height="7.93" fill="#edded5"/>
<rect x="305.33" y="117.17" width="7.93" height="7.93" fill="#7b98af"/>
<rect x="313.17" y="117.17" width="7.93" height="7.93" fill="#ad673d"/>
<rect x="274.00" y="78.00" width="47.00" height="47.00" fill="none" stroke="#d5dcda" stroke-width="1"/>
<rect x="274.00" y="134.00" width="7.93" height="7.93" fill="#dbbcaa"/>
<rect x="281.83" y="134.00" width="7.93" height="7.93" fill="#fcf9f7"/>
<rect x="289.67" y="134.00" width="7.93" height="7.93" fill="#fbf7f5"/>
<rect x="297.50" y="134.00" width="7.93" height="7.93" fill="#f2e6df"/>
<rect x="305.33" y="134.00" width="7.93" height="7.93" fill="#fbf8f7"/>
<rect x="313.17" y="134.00" width="7.93" height="7.93" fill="#fcf9f8"/>
<rect x="274.00" y="141.83" width="7.93" height="7.93" fill="#fcf9f7"/>
<rect x="281.83" y="141.83" width="7.93" height="7.93" fill="#ddc0af"/>
<rect x="289.67" y="141.83" width="7.93" height="7.93" fill="#f8f9fb"/>
<rect x="297.50" y="141.83" width="7.93" height="7.93" fill="#fefefd"/>
<rect x="305.33" y="141.83" width="7.93" height="7.93" fill="#fdfcfb"/>
<rect x="313.17" y="141.83" width="7.93" height="7.93" fill="#fdfefe"/>
<rect x="274.00" y="149.67" width="7.93" height="7.93" fill="#fbf7f5"/>
<rect x="281.83" y="149.67" width="7.93" height="7.93" fill="#f8f9fb"/>
<rect x="289.67" y="149.67" width="7.93" height="7.93" fill="#dbbdab"/>
<rect x="297.50" y="149.67" width="7.93" height="7.93" fill="#faf6f3"/>
<rect x="305.33" y="149.67" width="7.93" height="7.93" fill="#fafbfc"/>
<rect x="313.17" y="149.67" width="7.93" height="7.93" fill="#fffefe"/>
<rect x="274.00" y="157.50" width="7.93" height="7.93" fill="#f2e6df"/>
<rect x="281.83" y="157.50" width="7.93" height="7.93" fill="#fefefd"/>
<rect x="289.67" y="157.50" width="7.93" height="7.93" fill="#faf6f3"/>
<rect x="297.50" y="157.50" width="7.93" height="7.93" fill="#d9b8a5"/>
<rect x="305.33" y="157.50" width="7.93" height="7.93" fill="#fefefe"/>
<rect x="313.17" y="157.50" width="7.93" height="7.93" fill="#f9f4f1"/>
<rect x="274.00" y="165.33" width="7.93" height="7.93" fill="#fbf8f7"/>
<rect x="281.83" y="165.33" width="7.93" height="7.93" fill="#fdfcfb"/>
<rect x="289.67" y="165.33" width="7.93" height="7.93" fill="#fafbfc"/>
<rect x="297.50" y="165.33" width="7.93" height="7.93" fill="#fefefe"/>
<rect x="305.33" y="165.33" width="7.93" height="7.93" fill="#dcbdab"/>
<rect x="313.17" y="165.33" width="7.93" height="7.93" fill="#fdfefe"/>
<rect x="274.00" y="173.17" width="7.93" height="7.93" fill="#fcf9f8"/>
<rect x="281.83" y="173.17" width="7.93" height="7.93" fill="#fdfefe"/>
<rect x="289.67" y="173.17" width="7.93" height="7.93" fill="#fffefe"/>
<rect x="297.50" y="173.17" width="7.93" height="7.93" fill="#f9f4f1"/>
<rect x="305.33" y="173.17" width="7.93" height="7.93" fill="#fdfefe"/>
<rect x="313.17" y="173.17" width="7.93" height="7.93" fill="#dcbfad"/>
<rect x="274.00" y="134.00" width="47.00" height="47.00" fill="none" stroke="#d5dcda" stroke-width="1"/>
<rect x="274.00" y="190.00" width="7.93" height="7.93" fill="#fdfbfa"/>
<rect x="281.83" y="190.00" width="7.93" height="7.93" fill="#e1e7ed"/>
<rect x="289.67" y="190.00" width="7.93" height="7.93" fill="#d9e1e8"/>
<rect x="297.50" y="190.00" width="7.93" height="7.93" fill="#eff2f5"/>
<rect x="305.33" y="190.00" width="7.93" height="7.93" fill="#d9e2e8"/>
<rect x="313.17" y="190.00" width="7.93" height="7.93" fill="#cdd8e1"/>
<rect x="274.00" y="197.83" width="7.93" height="7.93" fill="#e1e7ed"/>
<rect x="281.83" y="197.83" width="7.93" height="7.93" fill="#f5f7f9"/>
<rect x="289.67" y="197.83" width="7.93" height="7.93" fill="#e6ecf0"/>
<rect x="297.50" y="197.83" width="7.93" height="7.93" fill="#ccd8e0"/>
<rect x="305.33" y="197.83" width="7.93" height="7.93" fill="#faf5f3"/>
<rect x="313.17" y="197.83" width="7.93" height="7.93" fill="#d6dfe6"/>
<rect x="274.00" y="205.67" width="7.93" height="7.93" fill="#d9e1e8"/>
<rect x="281.83" y="205.67" width="7.93" height="7.93" fill="#e6ecf0"/>
<rect x="289.67" y="205.67" width="7.93" height="7.93" fill="#87a2b6"/>
<rect x="297.50" y="205.67" width="7.93" height="7.93" fill="#fafbfc"/>
<rect x="305.33" y="205.67" width="7.93" height="7.93" fill="#e4eaef"/>
<rect x="313.17" y="205.67" width="7.93" height="7.93" fill="#e7d2c6"/>
<rect x="274.00" y="213.50" width="7.93" height="7.93" fill="#eff2f5"/>
<rect x="281.83" y="213.50" width="7.93" height="7.93" fill="#ccd8e0"/>
<rect x="289.67" y="213.50" width="7.93" height="7.93" fill="#fafbfc"/>
<rect x="297.50" y="213.50" width="7.93" height="7.93" fill="#f7f0eb"/>
<rect x="305.33" y="213.50" width="7.93" height="7.93" fill="#e8edf1"/>
<rect x="313.17" y="213.50" width="7.93" height="7.93" fill="#fbf8f6"/>
<rect x="274.00" y="221.33" width="7.93" height="7.93" fill="#d9e2e8"/>
<rect x="281.83" y="221.33" width="7.93" height="7.93" fill="#faf5f3"/>
<rect x="289.67" y="221.33" width="7.93" height="7.93" fill="#e4eaef"/>
<rect x="297.50" y="221.33" width="7.93" height="7.93" fill="#e8edf1"/>
<rect x="305.33" y="221.33" width="7.93" height="7.93" fill="#8aa4b8"/>
<rect x="313.17" y="221.33" width="7.93" height="7.93" fill="#c7d3dd"/>
<rect x="274.00" y="229.17" width="7.93" height="7.93" fill="#cdd8e1"/>
<rect x="281.83" y="229.17" width="7.93" height="7.93" fill="#d6dfe6"/>
<rect x="289.67" y="229.17" width="7.93" height="7.93" fill="#e7d2c6"/>
<rect x="297.50" y="229.17" width="7.93" height="7.93" fill="#fbf8f6"/>
<rect x="305.33" y="229.17" width="7.93" height="7.93" fill="#c7d3dd"/>
<rect x="313.17" y="229.17" width="7.93" height="7.93" fill="#fcfdfd"/>
<rect x="274.00" y="190.00" width="47.00" height="47.00" fill="none" stroke="#d5dcda" stroke-width="1"/>
<text x="332.00" y="105.00" fill="#5a6669" font-size="10" font-weight="400" text-anchor="start" font-family="-apple-system,BlinkMacSystemFont,Segoe UI,Arial,sans-serif">state</text>
<text x="332.00" y="161.00" fill="#5a6669" font-size="10" font-weight="400" text-anchor="start" font-family="-apple-system,BlinkMacSystemFont,Segoe UI,Arial,sans-serif">training</text>
<text x="332.00" y="217.00" fill="#5a6669" font-size="10" font-weight="400" text-anchor="start" font-family="-apple-system,BlinkMacSystemFont,Segoe UI,Arial,sans-serif">log map</text>
<text x="479.00" y="61.00" fill="#172126" font-size="11" font-weight="600" text-anchor="middle" font-family="-apple-system,BlinkMacSystemFont,Segoe UI,Arial,sans-serif">−50 volumes</text>
<rect x="443.00" y="78.00" width="7.93" height="7.93" fill="#ad673d"/>
<rect x="450.83" y="78.00" width="7.93" height="7.93" fill="#d1dbe3"/>
<rect x="458.67" y="78.00" width="7.93" height="7.93" fill="#f9f3f0"/>
<rect x="466.50" y="78.00" width="7.93" height="7.93" fill="#c49274"/>
<rect x="474.33" y="78.00" width="7.93" height="7.93" fill="#bbcad6"/>
<rect x="482.17" y="78.00" width="7.93" height="7.93" fill="#fdfdfe"/>
<rect x="443.00" y="85.83" width="7.93" height="7.93" fill="#d1dbe3"/>
<rect x="450.83" y="85.83" width="7.93" height="7.93" fill="#ad673d"/>
<rect x="458.67" y="85.83" width="7.93" height="7.93" fill="#d5dee5"/>
<rect x="466.50" y="85.83" width="7.93" height="7.93" fill="#c9d5de"/>
<rect x="474.33" y="85.83" width="7.93" height="7.93" fill="#f7f0ec"/>
<rect x="482.17" y="85.83" width="7.93" height="7.93" fill="#f7f0ec"/>
<rect x="443.00" y="93.67" width="7.93" height="7.93" fill="#f9f3f0"/>
<rect x="450.83" y="93.67" width="7.93" height="7.93" fill="#d5dee5"/>
<rect x="458.67" y="93.67" width="7.93" height="7.93" fill="#ad673d"/>
<rect x="466.50" y="93.67" width="7.93" height="7.93" fill="#f1e4dd"/>
<rect x="474.33" y="93.67" width="7.93" height="7.93" fill="#acbfcd"/>
<rect x="482.17" y="93.67" width="7.93" height="7.93" fill="#f1e5de"/>
<rect x="443.00" y="101.50" width="7.93" height="7.93" fill="#c49274"/>
<rect x="450.83" y="101.50" width="7.93" height="7.93" fill="#c9d5de"/>
<rect x="458.67" y="101.50" width="7.93" height="7.93" fill="#f1e4dd"/>
<rect x="466.50" y="101.50" width="7.93" height="7.93" fill="#ad673d"/>
<rect x="474.33" y="101.50" width="7.93" height="7.93" fill="#7d9ab0"/>
<rect x="482.17" y="101.50" width="7.93" height="7.93" fill="#e9d7cb"/>
<rect x="443.00" y="109.33" width="7.93" height="7.93" fill="#bbcad6"/>
<rect x="450.83" y="109.33" width="7.93" height="7.93" fill="#f7f0ec"/>
<rect x="458.67" y="109.33" width="7.93" height="7.93" fill="#acbfcd"/>
<rect x="466.50" y="109.33" width="7.93" height="7.93" fill="#7d9ab0"/>
<rect x="474.33" y="109.33" width="7.93" height="7.93" fill="#ad673d"/>
<rect x="482.17" y="109.33" width="7.93" height="7.93" fill="#8ba5b9"/>
<rect x="443.00" y="117.17" width="7.93" height="7.93" fill="#fdfdfe"/>
<rect x="450.83" y="117.17" width="7.93" height="7.93" fill="#f7f0ec"/>
<rect x="458.67" y="117.17" width="7.93" height="7.93" fill="#f1e5de"/>
<rect x="466.50" y="117.17" width="7.93" height="7.93" fill="#e9d7cb"/>
<rect x="474.33" y="117.17" width="7.93" height="7.93" fill="#8ba5b9"/>
<rect x="482.17" y="117.17" width="7.93" height="7.93" fill="#ad673d"/>
<rect x="443.00" y="78.00" width="47.00" height="47.00" fill="none" stroke="#d5dcda" stroke-width="1"/>
<rect x="443.00" y="134.00" width="7.93" height="7.93" fill="#dbbcaa"/>
<rect x="450.83" y="134.00" width="7.93" height="7.93" fill="#fcf9f7"/>
<rect x="458.67" y="134.00" width="7.93" height="7.93" fill="#fbf7f5"/>
<rect x="466.50" y="134.00" width="7.93" height="7.93" fill="#f2e7e0"/>
<rect x="474.33" y="134.00" width="7.93" height="7.93" fill="#fbf8f7"/>
<rect x="482.17" y="134.00" width="7.93" height="7.93" fill="#fcfaf8"/>
<rect x="443.00" y="141.83" width="7.93" height="7.93" fill="#fcf9f7"/>
<rect x="450.83" y="141.83" width="7.93" height="7.93" fill="#ddc1b0"/>
<rect x="458.67" y="141.83" width="7.93" height="7.93" fill="#f7f9fa"/>
<rect x="466.50" y="141.83" width="7.93" height="7.93" fill="#fefefd"/>
<rect x="474.33" y="141.83" width="7.93" height="7.93" fill="#fdfbfa"/>
<rect x="482.17" y="141.83" width="7.93" height="7.93" fill="#fdfefe"/>
<rect x="443.00" y="149.67" width="7.93" height="7.93" fill="#fbf7f5"/>
<rect x="450.83" y="149.67" width="7.93" height="7.93" fill="#f7f9fa"/>
<rect x="458.67" y="149.67" width="7.93" height="7.93" fill="#dcbdab"/>
<rect x="466.50" y="149.67" width="7.93" height="7.93" fill="#faf6f4"/>
<rect x="474.33" y="149.67" width="7.93" height="7.93" fill="#fafbfc"/>
<rect x="482.17" y="149.67" width="7.93" height="7.93" fill="#fffefe"/>
<rect x="443.00" y="157.50" width="7.93" height="7.93" fill="#f2e7e0"/>
<rect x="450.83" y="157.50" width="7.93" height="7.93" fill="#fefefd"/>
<rect x="458.67" y="157.50" width="7.93" height="7.93" fill="#faf6f4"/>
<rect x="466.50" y="157.50" width="7.93" height="7.93" fill="#d9b8a4"/>
<rect x="474.33" y="157.50" width="7.93" height="7.93" fill="#fffefe"/>
<rect x="482.17" y="157.50" width="7.93" height="7.93" fill="#f9f4f1"/>
<rect x="443.00" y="165.33" width="7.93" height="7.93" fill="#fbf8f7"/>
<rect x="450.83" y="165.33" width="7.93" height="7.93" fill="#fdfbfa"/>
<rect x="458.67" y="165.33" width="7.93" height="7.93" fill="#fafbfc"/>
<rect x="466.50" y="165.33" width="7.93" height="7.93" fill="#fffefe"/>
<rect x="474.33" y="165.33" width="7.93" height="7.93" fill="#dcbeac"/>
<rect x="482.17" y="165.33" width="7.93" height="7.93" fill="#fdfefe"/>
<rect x="443.00" y="173.17" width="7.93" height="7.93" fill="#fcfaf8"/>
<rect x="450.83" y="173.17" width="7.93" height="7.93" fill="#fdfefe"/>
<rect x="458.67" y="173.17" width="7.93" height="7.93" fill="#fffefe"/>
<rect x="466.50" y="173.17" width="7.93" height="7.93" fill="#f9f4f1"/>
<rect x="474.33" y="173.17" width="7.93" height="7.93" fill="#fdfefe"/>
<rect x="482.17" y="173.17" width="7.93" height="7.93" fill="#ddbfae"/>
<rect x="443.00" y="134.00" width="47.00" height="47.00" fill="none" stroke="#d5dcda" stroke-width="1"/>
<rect x="443.00" y="190.00" width="7.93" height="7.93" fill="#e8edf1"/>
<rect x="450.83" y="190.00" width="7.93" height="7.93" fill="#e3e9ee"/>
<rect x="458.67" y="190.00" width="7.93" height="7.93" fill="#e1e8ed"/>
<rect x="466.50" y="190.00" width="7.93" height="7.93" fill="#ebdbd0"/>
<rect x="474.33" y="190.00" width="7.93" height="7.93" fill="#d7e0e7"/>
<rect x="482.17" y="190.00" width="7.93" height="7.93" fill="#e0e7ec"/>
<rect x="443.00" y="197.83" width="7.93" height="7.93" fill="#e3e9ee"/>
<rect x="450.83" y="197.83" width="7.93" height="7.93" fill="#cca085"/>
<rect x="458.67" y="197.83" width="7.93" height="7.93" fill="#f0f4f6"/>
<rect x="466.50" y="197.83" width="7.93" height="7.93" fill="#f8fafb"/>
<rect x="474.33" y="197.83" width="7.93" height="7.93" fill="#edf1f4"/>
<rect x="482.17" y="197.83" width="7.93" height="7.93" fill="#f6eee9"/>
<rect x="443.00" y="205.67" width="7.93" height="7.93" fill="#e1e8ed"/>
<rect x="450.83" y="205.67" width="7.93" height="7.93" fill="#f0f4f6"/>
<rect x="458.67" y="205.67" width="7.93" height="7.93" fill="#fcf9f7"/>
<rect x="466.50" y="205.67" width="7.93" height="7.93" fill="#f5f7f9"/>
<rect x="474.33" y="205.67" width="7.93" height="7.93" fill="#e0e7ec"/>
<rect x="482.17" y="205.67" width="7.93" height="7.93" fill="#f7f1ed"/>
<rect x="443.00" y="213.50" width="7.93" height="7.93" fill="#ebdbd0"/>
<rect x="450.83" y="213.50" width="7.93" height="7.93" fill="#f8fafb"/>
<rect x="458.67" y="213.50" width="7.93" height="7.93" fill="#f5f7f9"/>
<rect x="466.50" y="213.50" width="7.93" height="7.93" fill="#abbecc"/>
<rect x="474.33" y="213.50" width="7.93" height="7.93" fill="#c7d4dd"/>
<rect x="482.17" y="213.50" width="7.93" height="7.93" fill="#ecf0f4"/>
<rect x="443.00" y="221.33" width="7.93" height="7.93" fill="#d7e0e7"/>
<rect x="450.83" y="221.33" width="7.93" height="7.93" fill="#edf1f4"/>
<rect x="458.67" y="221.33" width="7.93" height="7.93" fill="#e0e7ec"/>
<rect x="466.50" y="221.33" width="7.93" height="7.93" fill="#c7d4dd"/>
<rect x="474.33" y="221.33" width="7.93" height="7.93" fill="#3b6788"/>
<rect x="482.17" y="221.33" width="7.93" height="7.93" fill="#c7d3dd"/>
<rect x="443.00" y="229.17" width="7.93" height="7.93" fill="#e0e7ec"/>
<rect x="450.83" y="229.17" width="7.93" height="7.93" fill="#f6eee9"/>
<rect x="458.67" y="229.17" width="7.93" height="7.93" fill="#f7f1ed"/>
<rect x="466.50" y="229.17" width="7.93" height="7.93" fill="#ecf0f4"/>
<rect x="474.33" y="229.17" width="7.93" height="7.93" fill="#c7d3dd"/>
<rect x="482.17" y="229.17" width="7.93" height="7.93" fill="#f5ece6"/>
<rect x="443.00" y="190.00" width="47.00" height="47.00" fill="none" stroke="#d5dcda" stroke-width="1"/>
<text x="501.00" y="105.00" fill="#5a6669" font-size="10" font-weight="400" text-anchor="start" font-family="-apple-system,BlinkMacSystemFont,Segoe UI,Arial,sans-serif">state</text>
<text x="501.00" y="161.00" fill="#5a6669" font-size="10" font-weight="400" text-anchor="start" font-family="-apple-system,BlinkMacSystemFont,Segoe UI,Arial,sans-serif">training</text>
<text x="501.00" y="217.00" fill="#5a6669" font-size="10" font-weight="400" text-anchor="start" font-family="-apple-system,BlinkMacSystemFont,Segoe UI,Arial,sans-serif">log map</text>
<text x="24.00" y="106.00" fill="#235969" font-size="10" font-weight="600" text-anchor="start" font-family="-apple-system,BlinkMacSystemFont,Segoe UI,Arial,sans-serif">C state</text>
<text x="24.00" y="162.00" fill="#235969" font-size="10" font-weight="600" text-anchor="start" font-family="-apple-system,BlinkMacSystemFont,Segoe UI,Arial,sans-serif">G reference</text>
<text x="24.00" y="218.00" fill="#235969" font-size="10" font-weight="600" text-anchor="start" font-family="-apple-system,BlinkMacSystemFont,Segoe UI,Arial,sans-serif">T tangent</text>
<line x1="580.00" y1="53.00" x2="580.00" y2="248.00" stroke="#d5dcda" stroke-width="1" opacity="1"/>
<text x="648.00" y="61.00" fill="#235969" font-size="10" font-weight="700" text-anchor="middle" font-family="-apple-system,BlinkMacSystemFont,Segoe UI,Arial,sans-serif">PCA OUTPUT</text>
<rect x="592.00" y="84.00" width="12.00" height="12.00" fill="#ebf0f3"/>
<rect x="606.00" y="84.00" width="12.00" height="12.00" fill="#7a98ae"/>
<rect x="620.00" y="84.00" width="12.00" height="12.00" fill="#c6d3dc"/>
<rect x="634.00" y="84.00" width="12.00" height="12.00" fill="#eedfd6"/>
<rect x="648.00" y="84.00" width="12.00" height="12.00" fill="#f7f8fa"/>
<rect x="662.00" y="84.00" width="12.00" height="12.00" fill="#fdfbfa"/>
<rect x="676.00" y="84.00" width="12.00" height="12.00" fill="#88a2b7"/>
<rect x="690.00" y="84.00" width="12.00" height="12.00" fill="#86a1b5"/>
<rect x="592.00" y="98.00" width="12.00" height="12.00" fill="#f8f2ee"/>
<rect x="606.00" y="98.00" width="12.00" height="12.00" fill="#f3e8e2"/>
<rect x="620.00" y="98.00" width="12.00" height="12.00" fill="#dfe6eb"/>
<rect x="634.00" y="98.00" width="12.00" height="12.00" fill="#f3f5f8"/>
<rect x="648.00" y="98.00" width="12.00" height="12.00" fill="#b6c6d3"/>
<rect x="662.00" y="98.00" width="12.00" height="12.00" fill="#aabdcc"/>
<rect x="676.00" y="98.00" width="12.00" height="12.00" fill="#f8f9fb"/>
<rect x="690.00" y="98.00" width="12.00" height="12.00" fill="#b5c6d2"/>
<rect x="592.00" y="112.00" width="12.00" height="12.00" fill="#f1e4dd"/>
<rect x="606.00" y="112.00" width="12.00" height="12.00" fill="#f1e6df"/>
<rect x="620.00" y="112.00" width="12.00" height="12.00" fill="#fbfcfd"/>
<rect x="634.00" y="112.00" width="12.00" height="12.00" fill="#f2e6df"/>
<rect x="648.00" y="112.00" width="12.00" height="12.00" fill="#839fb4"/>
<rect x="662.00" y="112.00" width="12.00" height="12.00" fill="#9cb2c3"/>
<rect x="676.00" y="112.00" width="12.00" height="12.00" fill="#eff3f5"/>
<rect x="690.00" y="112.00" width="12.00" height="12.00" fill="#f4eae5"/>
<rect x="592.00" y="126.00" width="12.00" height="12.00" fill="#d0dbe3"/>
<rect x="606.00" y="126.00" width="12.00" height="12.00" fill="#edf1f4"/>
<rect x="620.00" y="126.00" width="12.00" height="12.00" fill="#829eb3"/>
<rect x="634.00" y="126.00" width="12.00" height="12.00" fill="#acbecd"/>
<rect x="648.00" y="126.00" width="12.00" height="12.00" fill="#eef2f5"/>
<rect x="662.00" y="126.00" width="12.00" height="12.00" fill="#fdfbfa"/>
<rect x="676.00" y="126.00" width="12.00" height="12.00" fill="#e4eaee"/>
<rect x="690.00" y="126.00" width="12.00" height="12.00" fill="#f5ede8"/>
<rect x="592.00" y="140.00" width="12.00" height="12.00" fill="#a5b9c8"/>
<rect x="606.00" y="140.00" width="12.00" height="12.00" fill="#9ab1c2"/>
<rect x="620.00" y="140.00" width="12.00" height="12.00" fill="#fcfcfd"/>
<rect x="634.00" y="140.00" width="12.00" height="12.00" fill="#efe2da"/>
<rect x="648.00" y="140.00" width="12.00" height="12.00" fill="#a0b5c5"/>
<rect x="662.00" y="140.00" width="12.00" height="12.00" fill="#fefefd"/>
<rect x="676.00" y="140.00" width="12.00" height="12.00" fill="#d5dee5"/>
<rect x="690.00" y="140.00" width="12.00" height="12.00" fill="#567b98"/>
<rect x="592.00" y="154.00" width="12.00" height="12.00" fill="#e1c7b8"/>
<rect x="606.00" y="154.00" width="12.00" height="12.00" fill="#faf6f3"/>
<rect x="620.00" y="154.00" width="12.00" height="12.00" fill="#ebdad0"/>
<rect x="634.00" y="154.00" width="12.00" height="12.00" fill="#dde5eb"/>
<rect x="648.00" y="154.00" width="12.00" height="12.00" fill="#d3dde4"/>
<rect x="662.00" y="154.00" width="12.00" height="12.00" fill="#cdd8e1"/>
<rect x="676.00" y="154.00" width="12.00" height="12.00" fill="#f6f8fa"/>
<rect x="690.00" y="154.00" width="12.00" height="12.00" fill="#c39072"/>
<rect x="592.00" y="168.00" width="12.00" height="12.00" fill="#b8c8d4"/>
<rect x="606.00" y="168.00" width="12.00" height="12.00" fill="#d6dfe6"/>
<rect x="620.00" y="168.00" width="12.00" height="12.00" fill="#f9fafb"/>
<rect x="634.00" y="168.00" width="12.00" height="12.00" fill="#d9b9a6"/>
<rect x="648.00" y="168.00" width="12.00" height="12.00" fill="#ffffff"/>
<rect x="662.00" y="168.00" width="12.00" height="12.00" fill="#e2cabb"/>
<rect x="676.00" y="168.00" width="12.00" height="12.00" fill="#b6c6d2"/>
<rect x="690.00" y="168.00" width="12.00" height="12.00" fill="#a9bccb"/>
<rect x="592.00" y="182.00" width="12.00" height="12.00" fill="#ccd7e0"/>
<rect x="606.00" y="182.00" width="12.00" height="12.00" fill="#f7f0ec"/>
<rect x="620.00" y="182.00" width="12.00" height="12.00" fill="#f9fafb"/>
<rect x="634.00" y="182.00" width="12.00" height="12.00" fill="#e2e9ee"/>
<rect x="648.00" y="182.00" width="12.00" height="12.00" fill="#f9f3f0"/>
<rect x="662.00" y="182.00" width="12.00" height="12.00" fill="#d8b7a3"/>
<rect x="676.00" y="182.00" width="12.00" height="12.00" fill="#f4eae4"/>
<rect x="690.00" y="182.00" width="12.00" height="12.00" fill="#cda288"/>
<rect x="592.00" y="84.00" width="112.00" height="112.00" fill="none" stroke="#d5dcda" stroke-width="1"/>
<text x="648.00" y="226.00" fill="#5a6669" font-size="10" font-weight="400" text-anchor="middle" font-family="-apple-system,BlinkMacSystemFont,Segoe UI,Arial,sans-serif">64 whitened scores</text>
<line x1="24.00" y1="260.00" x2="716.00" y2="260.00" stroke="#d5dcda" stroke-width="1" opacity="1"/>
<text x="24.00" y="283.00" fill="#5a6669" font-size="11" font-weight="400" text-anchor="start" font-family="-apple-system,BlinkMacSystemFont,Segoe UI,Arial,sans-serif">Each C, G, T image shows the same 6 channels from a full 39 × 39 matrix; T uses all 39.</text>
</svg>
