<svg xmlns="http://www.w3.org/2000/svg" width="740" height="300" viewBox="0 0 740 300" role="img" aria-labelledby="title desc">
<title id="title">Tangent decoder and temperature calibration</title>
<desc id="desc">The reconstructed 64 whitened tangent scores enter shrinkage LDA. Saved uncalibrated and calibrated stage probabilities are compared directly. The fitted tangent temperature is 2.114, softening this representative prediction.</desc>
<rect width="740" height="300" fill="#ffffff"/>
<text x="24.00" y="27.00" fill="#235969" font-size="11" font-weight="700" text-anchor="start" font-family="-apple-system,BlinkMacSystemFont,Segoe UI,Arial,sans-serif">FIGURE 05.1 / TANGENT DECODER</text>
<text x="716.00" y="27.00" fill="#5a6669" font-size="11" font-weight="400" text-anchor="end" font-family="-apple-system,BlinkMacSystemFont,Segoe UI,Arial,sans-serif">64 features → four probabilities</text>
<line x1="24.00" y1="39.00" x2="716.00" y2="39.00" stroke="#d5dcda" stroke-width="1" opacity="1"/>
<text x="93.00" y="62.00" fill="#235969" font-size="10" font-weight="700" text-anchor="middle" font-family="-apple-system,BlinkMacSystemFont,Segoe UI,Arial,sans-serif">64 PCA SCORES</text>
<rect x="37.00" y="89.00" width="12.00" height="12.00" fill="#ebf0f3"/>
<rect x="51.00" y="89.00" width="12.00" height="12.00" fill="#7a98ae"/>
<rect x="65.00" y="89.00" width="12.00" height="12.00" fill="#c6d3dc"/>
<rect x="79.00" y="89.00" width="12.00" height="12.00" fill="#eedfd6"/>
<rect x="93.00" y="89.00" width="12.00" height="12.00" fill="#f7f8fa"/>
<rect x="107.00" y="89.00" width="12.00" height="12.00" fill="#fdfbfa"/>
<rect x="121.00" y="89.00" width="12.00" height="12.00" fill="#88a2b7"/>
<rect x="135.00" y="89.00" width="12.00" height="12.00" fill="#86a1b5"/>
<rect x="37.00" y="103.00" width="12.00" height="12.00" fill="#f8f2ee"/>
<rect x="51.00" y="103.00" width="12.00" height="12.00" fill="#f3e8e2"/>
<rect x="65.00" y="103.00" width="12.00" height="12.00" fill="#dfe6eb"/>
<rect x="79.00" y="103.00" width="12.00" height="12.00" fill="#f3f5f8"/>
<rect x="93.00" y="103.00" width="12.00" height="12.00" fill="#b6c6d3"/>
<rect x="107.00" y="103.00" width="12.00" height="12.00" fill="#aabdcc"/>
<rect x="121.00" y="103.00" width="12.00" height="12.00" fill="#f8f9fb"/>
<rect x="135.00" y="103.00" width="12.00" height="12.00" fill="#b5c6d2"/>
<rect x="37.00" y="117.00" width="12.00" height="12.00" fill="#f1e4dd"/>
<rect x="51.00" y="117.00" width="12.00" height="12.00" fill="#f1e6df"/>
<rect x="65.00" y="117.00" width="12.00" height="12.00" fill="#fbfcfd"/>
<rect x="79.00" y="117.00" width="12.00" height="12.00" fill="#f2e6df"/>
<rect x="93.00" y="117.00" width="12.00" height="12.00" fill="#839fb4"/>
<rect x="107.00" y="117.00" width="12.00" height="12.00" fill="#9cb2c3"/>
<rect x="121.00" y="117.00" width="12.00" height="12.00" fill="#eff3f5"/>
<rect x="135.00" y="117.00" width="12.00" height="12.00" fill="#f4eae5"/>
<rect x="37.00" y="131.00" width="12.00" height="12.00" fill="#d0dbe3"/>
<rect x="51.00" y="131.00" width="12.00" height="12.00" fill="#edf1f4"/>
<rect x="65.00" y="131.00" width="12.00" height="12.00" fill="#829eb3"/>
<rect x="79.00" y="131.00" width="12.00" height="12.00" fill="#acbecd"/>
<rect x="93.00" y="131.00" width="12.00" height="12.00" fill="#eef2f5"/>
<rect x="107.00" y="131.00" width="12.00" height="12.00" fill="#fdfbfa"/>
<rect x="121.00" y="131.00" width="12.00" height="12.00" fill="#e4eaee"/>
<rect x="135.00" y="131.00" width="12.00" height="12.00" fill="#f5ede8"/>
<rect x="37.00" y="145.00" width="12.00" height="12.00" fill="#a5b9c8"/>
<rect x="51.00" y="145.00" width="12.00" height="12.00" fill="#9ab1c2"/>
<rect x="65.00" y="145.00" width="12.00" height="12.00" fill="#fcfcfd"/>
<rect x="79.00" y="145.00" width="12.00" height="12.00" fill="#efe2da"/>
<rect x="93.00" y="145.00" width="12.00" height="12.00" fill="#a0b5c5"/>
<rect x="107.00" y="145.00" width="12.00" height="12.00" fill="#fefefd"/>
<rect x="121.00" y="145.00" width="12.00" height="12.00" fill="#d5dee5"/>
<rect x="135.00" y="145.00" width="12.00" height="12.00" fill="#567b98"/>
<rect x="37.00" y="159.00" width="12.00" height="12.00" fill="#e1c7b8"/>
<rect x="51.00" y="159.00" width="12.00" height="12.00" fill="#faf6f3"/>
<rect x="65.00" y="159.00" width="12.00" height="12.00" fill="#ebdad0"/>
<rect x="79.00" y="159.00" width="12.00" height="12.00" fill="#dde5eb"/>
<rect x="93.00" y="159.00" width="12.00" height="12.00" fill="#d3dde4"/>
<rect x="107.00" y="159.00" width="12.00" height="12.00" fill="#cdd8e1"/>
<rect x="121.00" y="159.00" width="12.00" height="12.00" fill="#f6f8fa"/>
<rect x="135.00" y="159.00" width="12.00" height="12.00" fill="#c39072"/>
<rect x="37.00" y="173.00" width="12.00" height="12.00" fill="#b8c8d4"/>
<rect x="51.00" y="173.00" width="12.00" height="12.00" fill="#d6dfe6"/>
<rect x="65.00" y="173.00" width="12.00" height="12.00" fill="#f9fafb"/>
<rect x="79.00" y="173.00" width="12.00" height="12.00" fill="#d9b9a6"/>
<rect x="93.00" y="173.00" width="12.00" height="12.00" fill="#ffffff"/>
<rect x="107.00" y="173.00" width="12.00" height="12.00" fill="#e2cabb"/>
<rect x="121.00" y="173.00" width="12.00" height="12.00" fill="#b6c6d2"/>
<rect x="135.00" y="173.00" width="12.00" height="12.00" fill="#a9bccb"/>
<rect x="37.00" y="187.00" width="12.00" height="12.00" fill="#ccd7e0"/>
<rect x="51.00" y="187.00" width="12.00" height="12.00" fill="#f7f0ec"/>
<rect x="65.00" y="187.00" width="12.00" height="12.00" fill="#f9fafb"/>
<rect x="79.00" y="187.00" width="12.00" height="12.00" fill="#e2e9ee"/>
<rect x="93.00" y="187.00" width="12.00" height="12.00" fill="#f9f3f0"/>
<rect x="107.00" y="187.00" width="12.00" height="12.00" fill="#d8b7a3"/>
<rect x="121.00" y="187.00" width="12.00" height="12.00" fill="#f4eae4"/>
<rect x="135.00" y="187.00" width="12.00" height="12.00" fill="#cda288"/>
<rect x="37.00" y="89.00" width="112.00" height="112.00" fill="none" stroke="#d5dcda" stroke-width="1"/>
<text x="93.00" y="222.00" fill="#5a6669" font-size="10" font-weight="400" text-anchor="middle" font-family="-apple-system,BlinkMacSystemFont,Segoe UI,Arial,sans-serif">reconstructed</text>
<line x1="162.00" y1="143.00" x2="197.00" y2="143.00" stroke="#235969" stroke-width="1.5" opacity="1"/>
<polygon points="197.00,143.00 192.99,145.99 192.99,140.01" fill="#235969"/>
<text x="244.00" y="121.00" fill="#235969" font-size="10" font-weight="700" text-anchor="middle" font-family="-apple-system,BlinkMacSystemFont,Segoe UI,Arial,sans-serif">SHRINKAGE</text>
<text x="244.00" y="143.00" fill="#172126" font-size="17" font-weight="600" text-anchor="middle" font-family="-apple-system,BlinkMacSystemFont,Segoe UI,Arial,sans-serif">LDA</text>
<text x="244.00" y="165.00" fill="#5a6669" font-size="10" font-weight="400" text-anchor="middle" font-family="-apple-system,BlinkMacSystemFont,Segoe UI,Arial,sans-serif">equal priors</text>
<line x1="288.00" y1="143.00" x2="323.00" y2="143.00" stroke="#235969" stroke-width="1.5" opacity="1"/>
<polygon points="323.00,143.00 318.99,145.99 318.99,140.01" fill="#235969"/>
<line x1="458.00" y1="54.00" x2="458.00" y2="246.00" stroke="#d5dcda" stroke-width="1" opacity="1"/>
<text x="351.00" y="62.00" fill="#235969" font-size="10" font-weight="700" text-anchor="start" font-family="-apple-system,BlinkMacSystemFont,Segoe UI,Arial,sans-serif">RAW · SAVED</text>
<text x="478.00" y="62.00" fill="#235969" font-size="10" font-weight="700" text-anchor="start" font-family="-apple-system,BlinkMacSystemFont,Segoe UI,Arial,sans-serif">CALIBRATED · T = 2.114</text>
<text x="339.00" y="96.00" fill="#172126" font-size="11" font-weight="600" text-anchor="start" font-family="-apple-system,BlinkMacSystemFont,Segoe UI,Arial,sans-serif">Wake</text>
<rect x="375.00" y="85.00" width="57.00" height="13.00" fill="#eff3f2"/>
<rect x="375.00" y="85.00" width="48.95" height="13.00" fill="#b16b2e"/>
<text x="438.00" y="113.00" fill="#5a6669" font-size="10" font-weight="400" text-anchor="end" font-family="-apple-system,BlinkMacSystemFont,Segoe UI,Arial,sans-serif">85.9%</text>
<text x="485.00" y="96.00" fill="#172126" font-size="11" font-weight="600" text-anchor="start" font-family="-apple-system,BlinkMacSystemFont,Segoe UI,Arial,sans-serif">Wake</text>
<rect x="521.00" y="85.00" width="129.00" height="13.00" fill="#eff3f2"/>
<rect x="521.00" y="85.00" width="87.47" height="13.00" fill="#b16b2e"/>
<text x="697.00" y="97.00" fill="#172126" font-size="11" font-weight="600" text-anchor="end" font-family="-apple-system,BlinkMacSystemFont,Segoe UI,Arial,sans-serif">67.8%</text>
<text x="339.00" y="136.00" fill="#172126" font-size="11" font-weight="600" text-anchor="start" font-family="-apple-system,BlinkMacSystemFont,Segoe UI,Arial,sans-serif">N1</text>
<rect x="375.00" y="125.00" width="57.00" height="13.00" fill="#eff3f2"/>
<rect x="375.00" y="125.00" width="7.98" height="13.00" fill="#9a5773"/>
<text x="438.00" y="153.00" fill="#5a6669" font-size="10" font-weight="400" text-anchor="end" font-family="-apple-system,BlinkMacSystemFont,Segoe UI,Arial,sans-serif">14.0%</text>
<text x="485.00" y="136.00" fill="#172126" font-size="11" font-weight="600" text-anchor="start" font-family="-apple-system,BlinkMacSystemFont,Segoe UI,Arial,sans-serif">N1</text>
<rect x="521.00" y="125.00" width="129.00" height="13.00" fill="#eff3f2"/>
<rect x="521.00" y="125.00" width="37.10" height="13.00" fill="#9a5773"/>
<text x="697.00" y="137.00" fill="#172126" font-size="11" font-weight="600" text-anchor="end" font-family="-apple-system,BlinkMacSystemFont,Segoe UI,Arial,sans-serif">28.8%</text>
<text x="339.00" y="176.00" fill="#172126" font-size="11" font-weight="600" text-anchor="start" font-family="-apple-system,BlinkMacSystemFont,Segoe UI,Arial,sans-serif">N2</text>
<rect x="375.00" y="165.00" width="57.00" height="13.00" fill="#eff3f2"/>
<rect x="375.00" y="165.00" width="1.00" height="13.00" fill="#207a83"/>
<text x="438.00" y="193.00" fill="#5a6669" font-size="10" font-weight="400" text-anchor="end" font-family="-apple-system,BlinkMacSystemFont,Segoe UI,Arial,sans-serif">0.1%</text>
<text x="485.00" y="176.00" fill="#172126" font-size="11" font-weight="600" text-anchor="start" font-family="-apple-system,BlinkMacSystemFont,Segoe UI,Arial,sans-serif">N2</text>
<rect x="521.00" y="165.00" width="129.00" height="13.00" fill="#eff3f2"/>
<rect x="521.00" y="165.00" width="3.87" height="13.00" fill="#207a83"/>
<text x="697.00" y="177.00" fill="#172126" font-size="11" font-weight="600" text-anchor="end" font-family="-apple-system,BlinkMacSystemFont,Segoe UI,Arial,sans-serif">3.0%</text>
<text x="339.00" y="216.00" fill="#172126" font-size="11" font-weight="600" text-anchor="start" font-family="-apple-system,BlinkMacSystemFont,Segoe UI,Arial,sans-serif">N3</text>
<rect x="375.00" y="205.00" width="57.00" height="13.00" fill="#eff3f2"/>
<rect x="375.00" y="205.00" width="1.00" height="13.00" fill="#565b97"/>
<text x="438.00" y="233.00" fill="#5a6669" font-size="10" font-weight="400" text-anchor="end" font-family="-apple-system,BlinkMacSystemFont,Segoe UI,Arial,sans-serif">&lt;0.1%</text>
<text x="485.00" y="216.00" fill="#172126" font-size="11" font-weight="600" text-anchor="start" font-family="-apple-system,BlinkMacSystemFont,Segoe UI,Arial,sans-serif">N3</text>
<rect x="521.00" y="205.00" width="129.00" height="13.00" fill="#eff3f2"/>
<rect x="521.00" y="205.00" width="1.00" height="13.00" fill="#565b97"/>
<text x="697.00" y="217.00" fill="#172126" font-size="11" font-weight="600" text-anchor="end" font-family="-apple-system,BlinkMacSystemFont,Segoe UI,Arial,sans-serif">0.4%</text>
<line x1="24.00" y1="260.00" x2="716.00" y2="260.00" stroke="#d5dcda" stroke-width="1" opacity="1"/>
<text x="24.00" y="283.00" fill="#5a6669" font-size="11" font-weight="400" text-anchor="start" font-family="-apple-system,BlinkMacSystemFont,Segoe UI,Arial,sans-serif">Temperature softens this window's LDA output; both probability columns are saved model outputs.</text>
</svg>
