<svg xmlns="http://www.w3.org/2000/svg" width="740" height="300" viewBox="0 0 740 300" role="img" aria-labelledby="title desc">
<title id="title">Tangent scores to calibrated stage probabilities</title>
<desc id="desc">The reconstructed 64-component whitened PCA vector enters a schematic shrinkage-LDA score stage and temperature calibration. Four bars show saved held-out tangent-branch probabilities.</desc>
<rect width="740" height="300" fill="#ffffff"/>
<text x="24.00" y="27.00" fill="#235969" font-size="11" font-weight="700" text-anchor="start" font-family="-apple-system,BlinkMacSystemFont,Segoe UI,Arial,sans-serif">05 / TANGENT DECODER</text>
<text x="716.00" y="27.00" fill="#5a6669" font-size="11" font-weight="400" text-anchor="end" font-family="-apple-system,BlinkMacSystemFont,Segoe UI,Arial,sans-serif">64 features → four probabilities</text>
<line x1="24.00" y1="39.00" x2="716.00" y2="39.00" stroke="#d5dcda" stroke-width="1" opacity="1"/>
<text x="94.00" y="65.00" fill="#235969" font-size="10" font-weight="700" text-anchor="middle" font-family="-apple-system,BlinkMacSystemFont,Segoe UI,Arial,sans-serif">64 WHITENED SCORES</text>
<rect x="37.00" y="82.00" width="12.00" height="11.00" fill="#ebf0f3"/>
<rect x="51.00" y="82.00" width="12.00" height="11.00" fill="#7a98ae"/>
<rect x="65.00" y="82.00" width="12.00" height="11.00" fill="#c6d3dc"/>
<rect x="79.00" y="82.00" width="12.00" height="11.00" fill="#eedfd6"/>
<rect x="93.00" y="82.00" width="12.00" height="11.00" fill="#f7f8fa"/>
<rect x="107.00" y="82.00" width="12.00" height="11.00" fill="#fdfbfa"/>
<rect x="121.00" y="82.00" width="12.00" height="11.00" fill="#88a2b7"/>
<rect x="135.00" y="82.00" width="12.00" height="11.00" fill="#86a1b5"/>
<rect x="37.00" y="95.00" width="12.00" height="11.00" fill="#f8f2ee"/>
<rect x="51.00" y="95.00" width="12.00" height="11.00" fill="#f3e8e2"/>
<rect x="65.00" y="95.00" width="12.00" height="11.00" fill="#dfe6eb"/>
<rect x="79.00" y="95.00" width="12.00" height="11.00" fill="#f3f5f8"/>
<rect x="93.00" y="95.00" width="12.00" height="11.00" fill="#b6c6d3"/>
<rect x="107.00" y="95.00" width="12.00" height="11.00" fill="#aabdcc"/>
<rect x="121.00" y="95.00" width="12.00" height="11.00" fill="#f8f9fb"/>
<rect x="135.00" y="95.00" width="12.00" height="11.00" fill="#b5c6d2"/>
<rect x="37.00" y="108.00" width="12.00" height="11.00" fill="#f1e4dd"/>
<rect x="51.00" y="108.00" width="12.00" height="11.00" fill="#f1e6df"/>
<rect x="65.00" y="108.00" width="12.00" height="11.00" fill="#fbfcfd"/>
<rect x="79.00" y="108.00" width="12.00" height="11.00" fill="#f2e6df"/>
<rect x="93.00" y="108.00" width="12.00" height="11.00" fill="#839fb4"/>
<rect x="107.00" y="108.00" width="12.00" height="11.00" fill="#9cb2c3"/>
<rect x="121.00" y="108.00" width="12.00" height="11.00" fill="#eff3f5"/>
<rect x="135.00" y="108.00" width="12.00" height="11.00" fill="#f4eae5"/>
<rect x="37.00" y="121.00" width="12.00" height="11.00" fill="#d0dbe3"/>
<rect x="51.00" y="121.00" width="12.00" height="11.00" fill="#edf1f4"/>
<rect x="65.00" y="121.00" width="12.00" height="11.00" fill="#829eb3"/>
<rect x="79.00" y="121.00" width="12.00" height="11.00" fill="#acbecd"/>
<rect x="93.00" y="121.00" width="12.00" height="11.00" fill="#eef2f5"/>
<rect x="107.00" y="121.00" width="12.00" height="11.00" fill="#fdfbfa"/>
<rect x="121.00" y="121.00" width="12.00" height="11.00" fill="#e4eaee"/>
<rect x="135.00" y="121.00" width="12.00" height="11.00" fill="#f5ede8"/>
<rect x="37.00" y="134.00" width="12.00" height="11.00" fill="#a5b9c8"/>
<rect x="51.00" y="134.00" width="12.00" height="11.00" fill="#9ab1c2"/>
<rect x="65.00" y="134.00" width="12.00" height="11.00" fill="#fcfcfd"/>
<rect x="79.00" y="134.00" width="12.00" height="11.00" fill="#efe2da"/>
<rect x="93.00" y="134.00" width="12.00" height="11.00" fill="#a0b5c5"/>
<rect x="107.00" y="134.00" width="12.00" height="11.00" fill="#fefefd"/>
<rect x="121.00" y="134.00" width="12.00" height="11.00" fill="#d5dee5"/>
<rect x="135.00" y="134.00" width="12.00" height="11.00" fill="#567b98"/>
<rect x="37.00" y="147.00" width="12.00" height="11.00" fill="#e1c7b8"/>
<rect x="51.00" y="147.00" width="12.00" height="11.00" fill="#faf6f3"/>
<rect x="65.00" y="147.00" width="12.00" height="11.00" fill="#ebdad0"/>
<rect x="79.00" y="147.00" width="12.00" height="11.00" fill="#dde5eb"/>
<rect x="93.00" y="147.00" width="12.00" height="11.00" fill="#d3dde4"/>
<rect x="107.00" y="147.00" width="12.00" height="11.00" fill="#cdd8e1"/>
<rect x="121.00" y="147.00" width="12.00" height="11.00" fill="#f6f8fa"/>
<rect x="135.00" y="147.00" width="12.00" height="11.00" fill="#c39072"/>
<rect x="37.00" y="160.00" width="12.00" height="11.00" fill="#b8c8d4"/>
<rect x="51.00" y="160.00" width="12.00" height="11.00" fill="#d6dfe6"/>
<rect x="65.00" y="160.00" width="12.00" height="11.00" fill="#f9fafb"/>
<rect x="79.00" y="160.00" width="12.00" height="11.00" fill="#d9b9a6"/>
<rect x="93.00" y="160.00" width="12.00" height="11.00" fill="#ffffff"/>
<rect x="107.00" y="160.00" width="12.00" height="11.00" fill="#e2cabb"/>
<rect x="121.00" y="160.00" width="12.00" height="11.00" fill="#b6c6d2"/>
<rect x="135.00" y="160.00" width="12.00" height="11.00" fill="#a9bccb"/>
<rect x="37.00" y="173.00" width="12.00" height="11.00" fill="#ccd7e0"/>
<rect x="51.00" y="173.00" width="12.00" height="11.00" fill="#f7f0ec"/>
<rect x="65.00" y="173.00" width="12.00" height="11.00" fill="#f9fafb"/>
<rect x="79.00" y="173.00" width="12.00" height="11.00" fill="#e2e9ee"/>
<rect x="93.00" y="173.00" width="12.00" height="11.00" fill="#f9f3f0"/>
<rect x="107.00" y="173.00" width="12.00" height="11.00" fill="#d8b7a3"/>
<rect x="121.00" y="173.00" width="12.00" height="11.00" fill="#f4eae4"/>
<rect x="135.00" y="173.00" width="12.00" height="11.00" fill="#cda288"/>
<rect x="37.00" y="82.00" width="112.00" height="104.00" fill="none" stroke="#d5dcda" stroke-width="1"/>
<line x1="173.00" y1="136.00" x2="213.00" y2="136.00" stroke="#235969" stroke-width="1.5" opacity="1"/>
<polygon points="213.00,136.00 208.99,138.99 208.99,133.01" fill="#235969"/>
<text x="278.00" y="88.00" fill="#235969" font-size="10" font-weight="700" text-anchor="middle" font-family="-apple-system,BlinkMacSystemFont,Segoe UI,Arial,sans-serif">SHRINKAGE LDA</text>
<rect x="218.00" y="101.00" width="119.00" height="22.00" fill="#ffffff" stroke="#d5dcda" stroke-width="1"/>
<text x="278.00" y="116.00" fill="#172126" font-size="11" font-weight="600" text-anchor="middle" font-family="-apple-system,BlinkMacSystemFont,Segoe UI,Arial,sans-serif">score Wake</text>
<rect x="218.00" y="131.00" width="119.00" height="22.00" fill="#ffffff" stroke="#d5dcda" stroke-width="1"/>
<text x="278.00" y="146.00" fill="#172126" font-size="11" font-weight="600" text-anchor="middle" font-family="-apple-system,BlinkMacSystemFont,Segoe UI,Arial,sans-serif">score N1</text>
<rect x="218.00" y="161.00" width="119.00" height="22.00" fill="#ffffff" stroke="#d5dcda" stroke-width="1"/>
<text x="278.00" y="176.00" fill="#172126" font-size="11" font-weight="600" text-anchor="middle" font-family="-apple-system,BlinkMacSystemFont,Segoe UI,Arial,sans-serif">score N2</text>
<rect x="218.00" y="191.00" width="119.00" height="22.00" fill="#ffffff" stroke="#d5dcda" stroke-width="1"/>
<text x="278.00" y="206.00" fill="#172126" font-size="11" font-weight="600" text-anchor="middle" font-family="-apple-system,BlinkMacSystemFont,Segoe UI,Arial,sans-serif">score N3</text>
<line x1="351.00" y1="136.00" x2="392.00" y2="136.00" stroke="#235969" stroke-width="1.5" opacity="1"/>
<polygon points="392.00,136.00 387.99,138.99 387.99,133.01" fill="#235969"/>
<text x="366.00" y="113.00" fill="#5a6669" font-size="10" font-weight="400" text-anchor="middle" font-family="-apple-system,BlinkMacSystemFont,Segoe UI,Arial,sans-serif">softmax</text>
<text x="366.00" y="169.00" fill="#5a6669" font-size="10" font-weight="400" text-anchor="middle" font-family="-apple-system,BlinkMacSystemFont,Segoe UI,Arial,sans-serif">temperature</text>
<text x="535.00" y="65.00" fill="#235969" font-size="10" font-weight="700" text-anchor="middle" font-family="-apple-system,BlinkMacSystemFont,Segoe UI,Arial,sans-serif">SAVED BRANCH OUTPUT</text>
<text x="424.00" y="94.00" fill="#172126" font-size="11" font-weight="600" text-anchor="start" font-family="-apple-system,BlinkMacSystemFont,Segoe UI,Arial,sans-serif">Wake</text>
<rect x="472.00" y="83.00" width="173.00" height="14.00" fill="#eff3f2"/>
<rect x="472.00" y="83.00" width="117.30" height="14.00" fill="#b16b2e"/>
<text x="690.00" y="95.00" fill="#172126" font-size="11" font-weight="600" text-anchor="end" font-family="-apple-system,BlinkMacSystemFont,Segoe UI,Arial,sans-serif">67.8%</text>
<text x="424.00" y="132.00" fill="#172126" font-size="11" font-weight="600" text-anchor="start" font-family="-apple-system,BlinkMacSystemFont,Segoe UI,Arial,sans-serif">N1</text>
<rect x="472.00" y="121.00" width="173.00" height="14.00" fill="#eff3f2"/>
<rect x="472.00" y="121.00" width="49.75" height="14.00" fill="#9a5773"/>
<text x="690.00" y="133.00" fill="#172126" font-size="11" font-weight="600" text-anchor="end" font-family="-apple-system,BlinkMacSystemFont,Segoe UI,Arial,sans-serif">28.8%</text>
<text x="424.00" y="170.00" fill="#172126" font-size="11" font-weight="600" text-anchor="start" font-family="-apple-system,BlinkMacSystemFont,Segoe UI,Arial,sans-serif">N2</text>
<rect x="472.00" y="159.00" width="173.00" height="14.00" fill="#eff3f2"/>
<rect x="472.00" y="159.00" width="5.20" height="14.00" fill="#207a83"/>
<text x="690.00" y="171.00" fill="#172126" font-size="11" font-weight="600" text-anchor="end" font-family="-apple-system,BlinkMacSystemFont,Segoe UI,Arial,sans-serif">3.0%</text>
<text x="424.00" y="208.00" fill="#172126" font-size="11" font-weight="600" text-anchor="start" font-family="-apple-system,BlinkMacSystemFont,Segoe UI,Arial,sans-serif">N3</text>
<rect x="472.00" y="197.00" width="173.00" height="14.00" fill="#eff3f2"/>
<rect x="472.00" y="197.00" width="1.00" height="14.00" fill="#565b97"/>
<text x="690.00" y="209.00" fill="#172126" font-size="11" font-weight="600" text-anchor="end" font-family="-apple-system,BlinkMacSystemFont,Segoe UI,Arial,sans-serif">0.4%</text>
<line x1="24.00" y1="260.00" x2="716.00" y2="260.00" stroke="#d5dcda" stroke-width="1" opacity="1"/>
<text x="24.00" y="283.00" fill="#5a6669" font-size="11" font-weight="400" text-anchor="start" font-family="-apple-system,BlinkMacSystemFont,Segoe UI,Arial,sans-serif">The four probabilities sum to one; their maximum gives the tangent branch's stage.</text>
</svg>
