<svg xmlns="http://www.w3.org/2000/svg" width="740" height="300" viewBox="0 0 740 300" role="img" aria-labelledby="title desc">
<title id="title">Thirteen atlas networks become 39 signal channels</title>
<desc id="desc">The actual Gordon atlas community parcel counts sum to 333. Every network contributes its parcel mean and two fold-trained residual PCA scores, yielding 13 mean channels and 26 residual channels per volume.</desc>
<rect width="740" height="300" fill="#ffffff"/>
<text x="24.00" y="27.00" fill="#235969" font-size="11" font-weight="700" text-anchor="start" font-family="-apple-system,BlinkMacSystemFont,Segoe UI,Arial,sans-serif">02B / NETWORK INVENTORY</text>
<text x="716.00" y="27.00" fill="#5a6669" font-size="11" font-weight="400" text-anchor="end" font-family="-apple-system,BlinkMacSystemFont,Segoe UI,Arial,sans-serif">333 parcels → 39 signals per volume</text>
<line x1="24.00" y1="39.00" x2="716.00" y2="39.00" stroke="#d5dcda" stroke-width="1" opacity="1"/>
<text x="27.00" y="61.00" fill="#235969" font-size="10" font-weight="700" text-anchor="start" font-family="-apple-system,BlinkMacSystemFont,Segoe UI,Arial,sans-serif">GORDON COMMUNITY</text>
<text x="197.00" y="61.00" fill="#235969" font-size="10" font-weight="700" text-anchor="start" font-family="-apple-system,BlinkMacSystemFont,Segoe UI,Arial,sans-serif">PARCEL COUNT</text>
<rect x="497.00" y="53.00" width="9.00" height="9.00" fill="#235969"/>
<text x="510.00" y="61.00" fill="#235969" font-size="10" font-weight="700" text-anchor="start" font-family="-apple-system,BlinkMacSystemFont,Segoe UI,Arial,sans-serif">MEAN</text>
<rect x="564.00" y="53.00" width="9.00" height="9.00" fill="#315f82"/>
<text x="577.00" y="61.00" fill="#235969" font-size="10" font-weight="700" text-anchor="start" font-family="-apple-system,BlinkMacSystemFont,Segoe UI,Arial,sans-serif">PC 1</text>
<rect x="631.00" y="53.00" width="9.00" height="9.00" fill="#ad673d"/>
<text x="644.00" y="61.00" fill="#235969" font-size="10" font-weight="700" text-anchor="start" font-family="-apple-system,BlinkMacSystemFont,Segoe UI,Arial,sans-serif">PC 2</text>
<text x="27.00" y="84.00" fill="#172126" font-size="10" font-weight="400" text-anchor="start" font-family="-apple-system,BlinkMacSystemFont,Segoe UI,Arial,sans-serif">Auditory</text>
<rect x="197.00" y="76.00" width="227.00" height="8.00" fill="#edf2f1"/>
<rect x="197.00" y="76.00" width="115.91" height="8.00" fill="#235969"/>
<text x="444.00" y="84.00" fill="#172126" font-size="10" font-weight="600" text-anchor="end" font-family="-apple-system,BlinkMacSystemFont,Segoe UI,Arial,sans-serif">24</text>
<rect x="497.00" y="76.00" width="26.00" height="8.00" fill="#235969"/>
<rect x="564.00" y="76.00" width="26.00" height="8.00" fill="#315f82"/>
<rect x="631.00" y="76.00" width="26.00" height="8.00" fill="#ad673d"/>
<text x="27.00" y="97.20" fill="#172126" font-size="10" font-weight="400" text-anchor="start" font-family="-apple-system,BlinkMacSystemFont,Segoe UI,Arial,sans-serif">Cingulo-opercular</text>
<rect x="197.00" y="89.20" width="227.00" height="8.00" fill="#edf2f1"/>
<rect x="197.00" y="89.20" width="193.19" height="8.00" fill="#235969"/>
<text x="444.00" y="97.20" fill="#172126" font-size="10" font-weight="600" text-anchor="end" font-family="-apple-system,BlinkMacSystemFont,Segoe UI,Arial,sans-serif">40</text>
<rect x="497.00" y="89.20" width="26.00" height="8.00" fill="#235969"/>
<rect x="564.00" y="89.20" width="26.00" height="8.00" fill="#315f82"/>
<rect x="631.00" y="89.20" width="26.00" height="8.00" fill="#ad673d"/>
<text x="27.00" y="110.40" fill="#172126" font-size="10" font-weight="400" text-anchor="start" font-family="-apple-system,BlinkMacSystemFont,Segoe UI,Arial,sans-serif">Parietal memory</text>
<rect x="197.00" y="102.40" width="227.00" height="8.00" fill="#edf2f1"/>
<rect x="197.00" y="102.40" width="24.15" height="8.00" fill="#235969"/>
<text x="444.00" y="110.40" fill="#172126" font-size="10" font-weight="600" text-anchor="end" font-family="-apple-system,BlinkMacSystemFont,Segoe UI,Arial,sans-serif">5</text>
<rect x="497.00" y="102.40" width="26.00" height="8.00" fill="#235969"/>
<rect x="564.00" y="102.40" width="26.00" height="8.00" fill="#315f82"/>
<rect x="631.00" y="102.40" width="26.00" height="8.00" fill="#ad673d"/>
<text x="27.00" y="123.60" fill="#172126" font-size="10" font-weight="400" text-anchor="start" font-family="-apple-system,BlinkMacSystemFont,Segoe UI,Arial,sans-serif">Default</text>
<rect x="197.00" y="115.60" width="227.00" height="8.00" fill="#edf2f1"/>
<rect x="197.00" y="115.60" width="198.02" height="8.00" fill="#235969"/>
<text x="444.00" y="123.60" fill="#172126" font-size="10" font-weight="600" text-anchor="end" font-family="-apple-system,BlinkMacSystemFont,Segoe UI,Arial,sans-serif">41</text>
<rect x="497.00" y="115.60" width="26.00" height="8.00" fill="#235969"/>
<rect x="564.00" y="115.60" width="26.00" height="8.00" fill="#315f82"/>
<rect x="631.00" y="115.60" width="26.00" height="8.00" fill="#ad673d"/>
<text x="27.00" y="136.80" fill="#172126" font-size="10" font-weight="400" text-anchor="start" font-family="-apple-system,BlinkMacSystemFont,Segoe UI,Arial,sans-serif">Dorsal attention</text>
<rect x="197.00" y="128.80" width="227.00" height="8.00" fill="#edf2f1"/>
<rect x="197.00" y="128.80" width="154.55" height="8.00" fill="#235969"/>
<text x="444.00" y="136.80" fill="#172126" font-size="10" font-weight="600" text-anchor="end" font-family="-apple-system,BlinkMacSystemFont,Segoe UI,Arial,sans-serif">32</text>
<rect x="497.00" y="128.80" width="26.00" height="8.00" fill="#235969"/>
<rect x="564.00" y="128.80" width="26.00" height="8.00" fill="#315f82"/>
<rect x="631.00" y="128.80" width="26.00" height="8.00" fill="#ad673d"/>
<text x="27.00" y="150.00" fill="#172126" font-size="10" font-weight="400" text-anchor="start" font-family="-apple-system,BlinkMacSystemFont,Segoe UI,Arial,sans-serif">Frontoparietal</text>
<rect x="197.00" y="142.00" width="227.00" height="8.00" fill="#edf2f1"/>
<rect x="197.00" y="142.00" width="115.91" height="8.00" fill="#235969"/>
<text x="444.00" y="150.00" fill="#172126" font-size="10" font-weight="600" text-anchor="end" font-family="-apple-system,BlinkMacSystemFont,Segoe UI,Arial,sans-serif">24</text>
<rect x="497.00" y="142.00" width="26.00" height="8.00" fill="#235969"/>
<rect x="564.00" y="142.00" width="26.00" height="8.00" fill="#315f82"/>
<rect x="631.00" y="142.00" width="26.00" height="8.00" fill="#ad673d"/>
<text x="27.00" y="163.20" fill="#172126" font-size="10" font-weight="400" text-anchor="start" font-family="-apple-system,BlinkMacSystemFont,Segoe UI,Arial,sans-serif">None</text>
<rect x="197.00" y="155.20" width="227.00" height="8.00" fill="#edf2f1"/>
<rect x="197.00" y="155.20" width="227.00" height="8.00" fill="#235969"/>
<text x="444.00" y="163.20" fill="#172126" font-size="10" font-weight="600" text-anchor="end" font-family="-apple-system,BlinkMacSystemFont,Segoe UI,Arial,sans-serif">47</text>
<rect x="497.00" y="155.20" width="26.00" height="8.00" fill="#235969"/>
<rect x="564.00" y="155.20" width="26.00" height="8.00" fill="#315f82"/>
<rect x="631.00" y="155.20" width="26.00" height="8.00" fill="#ad673d"/>
<text x="27.00" y="176.40" fill="#172126" font-size="10" font-weight="400" text-anchor="start" font-family="-apple-system,BlinkMacSystemFont,Segoe UI,Arial,sans-serif">Retrosplenial temporal</text>
<rect x="197.00" y="168.40" width="227.00" height="8.00" fill="#edf2f1"/>
<rect x="197.00" y="168.40" width="38.64" height="8.00" fill="#235969"/>
<text x="444.00" y="176.40" fill="#172126" font-size="10" font-weight="600" text-anchor="end" font-family="-apple-system,BlinkMacSystemFont,Segoe UI,Arial,sans-serif">8</text>
<rect x="497.00" y="168.40" width="26.00" height="8.00" fill="#235969"/>
<rect x="564.00" y="168.40" width="26.00" height="8.00" fill="#315f82"/>
<rect x="631.00" y="168.40" width="26.00" height="8.00" fill="#ad673d"/>
<text x="27.00" y="189.60" fill="#172126" font-size="10" font-weight="400" text-anchor="start" font-family="-apple-system,BlinkMacSystemFont,Segoe UI,Arial,sans-serif">Somatomotor hand</text>
<rect x="197.00" y="181.60" width="227.00" height="8.00" fill="#edf2f1"/>
<rect x="197.00" y="181.60" width="183.53" height="8.00" fill="#235969"/>
<text x="444.00" y="189.60" fill="#172126" font-size="10" font-weight="600" text-anchor="end" font-family="-apple-system,BlinkMacSystemFont,Segoe UI,Arial,sans-serif">38</text>
<rect x="497.00" y="181.60" width="26.00" height="8.00" fill="#235969"/>
<rect x="564.00" y="181.60" width="26.00" height="8.00" fill="#315f82"/>
<rect x="631.00" y="181.60" width="26.00" height="8.00" fill="#ad673d"/>
<text x="27.00" y="202.80" fill="#172126" font-size="10" font-weight="400" text-anchor="start" font-family="-apple-system,BlinkMacSystemFont,Segoe UI,Arial,sans-serif">Somatomotor mouth</text>
<rect x="197.00" y="194.80" width="227.00" height="8.00" fill="#edf2f1"/>
<rect x="197.00" y="194.80" width="38.64" height="8.00" fill="#235969"/>
<text x="444.00" y="202.80" fill="#172126" font-size="10" font-weight="600" text-anchor="end" font-family="-apple-system,BlinkMacSystemFont,Segoe UI,Arial,sans-serif">8</text>
<rect x="497.00" y="194.80" width="26.00" height="8.00" fill="#235969"/>
<rect x="564.00" y="194.80" width="26.00" height="8.00" fill="#315f82"/>
<rect x="631.00" y="194.80" width="26.00" height="8.00" fill="#ad673d"/>
<text x="27.00" y="216.00" fill="#172126" font-size="10" font-weight="400" text-anchor="start" font-family="-apple-system,BlinkMacSystemFont,Segoe UI,Arial,sans-serif">Salience</text>
<rect x="197.00" y="208.00" width="227.00" height="8.00" fill="#edf2f1"/>
<rect x="197.00" y="208.00" width="19.32" height="8.00" fill="#235969"/>
<text x="444.00" y="216.00" fill="#172126" font-size="10" font-weight="600" text-anchor="end" font-family="-apple-system,BlinkMacSystemFont,Segoe UI,Arial,sans-serif">4</text>
<rect x="497.00" y="208.00" width="26.00" height="8.00" fill="#235969"/>
<rect x="564.00" y="208.00" width="26.00" height="8.00" fill="#315f82"/>
<rect x="631.00" y="208.00" width="26.00" height="8.00" fill="#ad673d"/>
<text x="27.00" y="229.20" fill="#172126" font-size="10" font-weight="400" text-anchor="start" font-family="-apple-system,BlinkMacSystemFont,Segoe UI,Arial,sans-serif">Ventral attention</text>
<rect x="197.00" y="221.20" width="227.00" height="8.00" fill="#edf2f1"/>
<rect x="197.00" y="221.20" width="111.09" height="8.00" fill="#235969"/>
<text x="444.00" y="229.20" fill="#172126" font-size="10" font-weight="600" text-anchor="end" font-family="-apple-system,BlinkMacSystemFont,Segoe UI,Arial,sans-serif">23</text>
<rect x="497.00" y="221.20" width="26.00" height="8.00" fill="#235969"/>
<rect x="564.00" y="221.20" width="26.00" height="8.00" fill="#315f82"/>
<rect x="631.00" y="221.20" width="26.00" height="8.00" fill="#ad673d"/>
<text x="27.00" y="242.40" fill="#172126" font-size="10" font-weight="400" text-anchor="start" font-family="-apple-system,BlinkMacSystemFont,Segoe UI,Arial,sans-serif">Visual</text>
<rect x="197.00" y="234.40" width="227.00" height="8.00" fill="#edf2f1"/>
<rect x="197.00" y="234.40" width="188.36" height="8.00" fill="#235969"/>
<text x="444.00" y="242.40" fill="#172126" font-size="10" font-weight="600" text-anchor="end" font-family="-apple-system,BlinkMacSystemFont,Segoe UI,Arial,sans-serif">39</text>
<rect x="497.00" y="234.40" width="26.00" height="8.00" fill="#235969"/>
<rect x="564.00" y="234.40" width="26.00" height="8.00" fill="#315f82"/>
<rect x="631.00" y="234.40" width="26.00" height="8.00" fill="#ad673d"/>
<line x1="24.00" y1="260.00" x2="716.00" y2="260.00" stroke="#d5dcda" stroke-width="1" opacity="1"/>
<text x="24.00" y="283.00" fill="#5a6669" font-size="11" font-weight="400" text-anchor="start" font-family="-apple-system,BlinkMacSystemFont,Segoe UI,Arial,sans-serif">Every row adds one mean and two residual scores; the bars show actual atlas parcel counts.</text>
</svg>
