<svg xmlns="http://www.w3.org/2000/svg" width="740" height="230" viewBox="0 0 740 230" role="img" aria-labelledby="title desc">
<title id="title">Directed-cycle branch</title>
<desc id="desc">Schematic gradient, curl, and harmonic graph-flow patterns at left; saved 23-feature cycle summary for one held-out window at right. H, G, and C mean harmonic, gradient, and curl energy shares. The sketches are not atlas locations.</desc>
<rect width="740" height="230" fill="#ffffff"/>
<text x="24.00" y="27.00" fill="#235969" font-size="11" font-weight="700" text-anchor="start" font-family="-apple-system,BlinkMacSystemFont,Segoe UI,Arial,sans-serif">06 / DIRECTED-CYCLE BRANCH</text>
<text x="716.00" y="27.00" fill="#5a6669" font-size="11" font-weight="400" text-anchor="end" font-family="-apple-system,BlinkMacSystemFont,Segoe UI,Arial,sans-serif">graph-flow components · 23 features</text>
<line x1="24.00" y1="39.00" x2="716.00" y2="39.00" stroke="#d5dcda" stroke-width="1" opacity="1"/>
<text x="28.00" y="58.00" fill="#235969" font-size="10" font-weight="700" text-anchor="start" font-family="-apple-system,BlinkMacSystemFont,Segoe UI,Arial,sans-serif">GRAPH-FLOW PATTERNS · SCHEMATIC</text>
<text x="79.00" y="81.00" fill="#172126" font-size="11" font-weight="600" text-anchor="middle" font-family="-apple-system,BlinkMacSystemFont,Segoe UI,Arial,sans-serif">gradient</text>
<text x="177.00" y="81.00" fill="#172126" font-size="11" font-weight="600" text-anchor="middle" font-family="-apple-system,BlinkMacSystemFont,Segoe UI,Arial,sans-serif">curl</text>
<text x="288.00" y="81.00" fill="#172126" font-size="11" font-weight="600" text-anchor="middle" font-family="-apple-system,BlinkMacSystemFont,Segoe UI,Arial,sans-serif">harmonic</text>
<circle cx="47.00" cy="132.00" r="4.00" fill="#ffffff" stroke="#172126" stroke-width="1.5"/>
<circle cx="79.00" cy="132.00" r="4.00" fill="#ffffff" stroke="#172126" stroke-width="1.5"/>
<circle cx="111.00" cy="132.00" r="4.00" fill="#ffffff" stroke="#172126" stroke-width="1.5"/>
<line x1="53.00" y1="132.00" x2="71.00" y2="132.00" stroke="#235969" stroke-width="2" opacity="1"/>
<polygon points="71.00,132.00 66.99,134.99 66.99,129.01" fill="#235969"/>
<line x1="85.00" y1="132.00" x2="103.00" y2="132.00" stroke="#235969" stroke-width="2" opacity="1"/>
<polygon points="103.00,132.00 98.99,134.99 98.99,129.01" fill="#235969"/>
<text x="79.00" y="183.00" fill="#5a6669" font-size="10" font-weight="400" text-anchor="middle" font-family="-apple-system,BlinkMacSystemFont,Segoe UI,Arial,sans-serif">source → sink</text>
<polygon points="177,98 145,156 209,156" fill="#eff3f2" stroke="#d5dcda"/>
<line x1="181.00" y1="108.00" x2="203.00" y2="148.00" stroke="#ad673d" stroke-width="2" opacity="1"/>
<polygon points="203.00,148.00 198.45,145.93 203.69,143.05" fill="#ad673d"/>
<line x1="201.00" y1="156.00" x2="153.00" y2="156.00" stroke="#ad673d" stroke-width="2" opacity="1"/>
<polygon points="153.00,156.00 157.01,153.01 157.01,158.99" fill="#ad673d"/>
<line x1="151.00" y1="148.00" x2="173.00" y2="108.00" stroke="#ad673d" stroke-width="2" opacity="1"/>
<polygon points="173.00,108.00 173.69,112.95 168.45,110.07" fill="#ad673d"/>
<circle cx="177.00" cy="98.00" r="4.00" fill="#ffffff" stroke="#172126" stroke-width="1.5"/>
<circle cx="145.00" cy="156.00" r="4.00" fill="#ffffff" stroke="#172126" stroke-width="1.5"/>
<circle cx="209.00" cy="156.00" r="4.00" fill="#ffffff" stroke="#172126" stroke-width="1.5"/>
<text x="177.00" y="183.00" fill="#5a6669" font-size="10" font-weight="400" text-anchor="middle" font-family="-apple-system,BlinkMacSystemFont,Segoe UI,Arial,sans-serif">filled triangle</text>
<polygon points="258,104 318,104 318,164 258,164" fill="none" stroke="#d5dcda"/>
<rect x="277.00" y="123.00" width="22.00" height="22.00" fill="#ffffff" stroke="#d5dcda" stroke-width="1"/>
<line x1="266.00" y1="104.00" x2="310.00" y2="104.00" stroke="#315f82" stroke-width="2" opacity="1"/>
<polygon points="310.00,104.00 305.99,106.99 305.99,101.01" fill="#315f82"/>
<line x1="318.00" y1="112.00" x2="318.00" y2="156.00" stroke="#315f82" stroke-width="2" opacity="1"/>
<polygon points="318.00,156.00 315.01,151.99 320.99,151.99" fill="#315f82"/>
<line x1="310.00" y1="164.00" x2="266.00" y2="164.00" stroke="#315f82" stroke-width="2" opacity="1"/>
<polygon points="266.00,164.00 270.01,161.01 270.01,166.99" fill="#315f82"/>
<line x1="258.00" y1="156.00" x2="258.00" y2="112.00" stroke="#315f82" stroke-width="2" opacity="1"/>
<polygon points="258.00,112.00 260.99,116.01 255.01,116.01" fill="#315f82"/>
<circle cx="258.00" cy="104.00" r="4.00" fill="#ffffff" stroke="#172126" stroke-width="1.5"/>
<circle cx="318.00" cy="104.00" r="4.00" fill="#ffffff" stroke="#172126" stroke-width="1.5"/>
<circle cx="318.00" cy="164.00" r="4.00" fill="#ffffff" stroke="#172126" stroke-width="1.5"/>
<circle cx="258.00" cy="164.00" r="4.00" fill="#ffffff" stroke="#172126" stroke-width="1.5"/>
<text x="288.00" y="183.00" fill="#5a6669" font-size="10" font-weight="400" text-anchor="middle" font-family="-apple-system,BlinkMacSystemFont,Segoe UI,Arial,sans-serif">unfilled loop</text>
<text x="28.00" y="214.00" fill="#5a6669" font-size="10" font-weight="400" text-anchor="start" font-family="-apple-system,BlinkMacSystemFont,Segoe UI,Arial,sans-serif">Topology examples, not atlas coordinates.</text>
<line x1="351.00" y1="50.00" x2="351.00" y2="216.00" stroke="#d5dcda" stroke-width="1" opacity="1"/>
<text x="369.00" y="59.00" fill="#235969" font-size="10" font-weight="700" text-anchor="start" font-family="-apple-system,BlinkMacSystemFont,Segoe UI,Arial,sans-serif">SAVED FEATURE PROFILE</text>
<text x="400.00" y="81.00" fill="#172126" font-size="10" font-weight="600" text-anchor="start" font-family="-apple-system,BlinkMacSystemFont,Segoe UI,Arial,sans-serif">flow</text>
<rect x="400.00" y="95.00" width="49.00" height="8.00" fill="#eff3f2"/>
<rect x="400.00" y="95.00" width="25.25" height="8.00" fill="#235969"/>
<rect x="400.00" y="117.00" width="49.00" height="8.00" fill="#eff3f2"/>
<rect x="400.00" y="117.00" width="41.96" height="8.00" fill="#235969"/>
<rect x="400.00" y="139.00" width="49.00" height="8.00" fill="#eff3f2"/>
<rect x="400.00" y="139.00" width="49.00" height="8.00" fill="#235969"/>
<rect x="400.00" y="161.00" width="49.00" height="8.00" fill="#eff3f2"/>
<rect x="400.00" y="161.00" width="32.81" height="8.00" fill="#235969"/>
<text x="462.00" y="81.00" fill="#172126" font-size="10" font-weight="600" text-anchor="start" font-family="-apple-system,BlinkMacSystemFont,Segoe UI,Arial,sans-serif">harmonic</text>
<rect x="462.00" y="95.00" width="49.00" height="8.00" fill="#eff3f2"/>
<rect x="462.00" y="95.00" width="25.05" height="8.00" fill="#235969"/>
<rect x="462.00" y="117.00" width="49.00" height="8.00" fill="#eff3f2"/>
<rect x="462.00" y="117.00" width="41.85" height="8.00" fill="#235969"/>
<rect x="462.00" y="139.00" width="49.00" height="8.00" fill="#eff3f2"/>
<rect x="462.00" y="139.00" width="49.00" height="8.00" fill="#235969"/>
<rect x="462.00" y="161.00" width="49.00" height="8.00" fill="#eff3f2"/>
<rect x="462.00" y="161.00" width="32.76" height="8.00" fill="#235969"/>
<text x="524.00" y="81.00" fill="#172126" font-size="10" font-weight="600" text-anchor="start" font-family="-apple-system,BlinkMacSystemFont,Segoe UI,Arial,sans-serif">H share</text>
<rect x="524.00" y="95.00" width="49.00" height="8.00" fill="#eff3f2"/>
<rect x="524.00" y="95.00" width="48.22" height="8.00" fill="#235969"/>
<rect x="524.00" y="117.00" width="49.00" height="8.00" fill="#eff3f2"/>
<rect x="524.00" y="117.00" width="48.75" height="8.00" fill="#235969"/>
<rect x="524.00" y="139.00" width="49.00" height="8.00" fill="#eff3f2"/>
<rect x="524.00" y="139.00" width="49.00" height="8.00" fill="#235969"/>
<rect x="524.00" y="161.00" width="49.00" height="8.00" fill="#eff3f2"/>
<rect x="524.00" y="161.00" width="48.85" height="8.00" fill="#235969"/>
<text x="586.00" y="81.00" fill="#172126" font-size="10" font-weight="600" text-anchor="start" font-family="-apple-system,BlinkMacSystemFont,Segoe UI,Arial,sans-serif">G share</text>
<rect x="586.00" y="95.00" width="49.00" height="8.00" fill="#eff3f2"/>
<rect x="586.00" y="95.00" width="45.70" height="8.00" fill="#235969"/>
<rect x="586.00" y="117.00" width="49.00" height="8.00" fill="#eff3f2"/>
<rect x="586.00" y="117.00" width="47.35" height="8.00" fill="#235969"/>
<rect x="586.00" y="139.00" width="49.00" height="8.00" fill="#eff3f2"/>
<rect x="586.00" y="139.00" width="49.00" height="8.00" fill="#235969"/>
<rect x="586.00" y="161.00" width="49.00" height="8.00" fill="#eff3f2"/>
<rect x="586.00" y="161.00" width="47.03" height="8.00" fill="#235969"/>
<text x="648.00" y="81.00" fill="#172126" font-size="10" font-weight="600" text-anchor="start" font-family="-apple-system,BlinkMacSystemFont,Segoe UI,Arial,sans-serif">C share</text>
<rect x="648.00" y="95.00" width="49.00" height="8.00" fill="#eff3f2"/>
<rect x="648.00" y="95.00" width="49.00" height="8.00" fill="#235969"/>
<rect x="648.00" y="117.00" width="49.00" height="8.00" fill="#eff3f2"/>
<rect x="648.00" y="117.00" width="47.87" height="8.00" fill="#235969"/>
<rect x="648.00" y="139.00" width="49.00" height="8.00" fill="#eff3f2"/>
<rect x="648.00" y="139.00" width="46.77" height="8.00" fill="#235969"/>
<rect x="648.00" y="161.00" width="49.00" height="8.00" fill="#eff3f2"/>
<rect x="648.00" y="161.00" width="48.06" height="8.00" fill="#235969"/>
<text x="389.00" y="102.00" fill="#5a6669" font-size="10" font-weight="400" text-anchor="end" font-family="-apple-system,BlinkMacSystemFont,Segoe UI,Arial,sans-serif">lag 1</text>
<text x="389.00" y="124.00" fill="#5a6669" font-size="10" font-weight="400" text-anchor="end" font-family="-apple-system,BlinkMacSystemFont,Segoe UI,Arial,sans-serif">lag 2</text>
<text x="389.00" y="146.00" fill="#5a6669" font-size="10" font-weight="400" text-anchor="end" font-family="-apple-system,BlinkMacSystemFont,Segoe UI,Arial,sans-serif">lag 3</text>
<text x="389.00" y="168.00" fill="#5a6669" font-size="10" font-weight="400" text-anchor="end" font-family="-apple-system,BlinkMacSystemFont,Segoe UI,Arial,sans-serif">pooled</text>
<line x1="368.00" y1="190.00" x2="715.00" y2="190.00" stroke="#d5dcda" stroke-width="1" opacity="1"/>
<text x="369.00" y="209.00" fill="#172126" font-size="10" font-weight="400" text-anchor="start" font-family="-apple-system,BlinkMacSystemFont,Segoe UI,Arial,sans-serif">ΔH norm 1.55</text>
<text x="485.00" y="209.00" fill="#172126" font-size="10" font-weight="400" text-anchor="start" font-family="-apple-system,BlinkMacSystemFont,Segoe UI,Arial,sans-serif">cosine 0.90</text>
<text x="586.00" y="209.00" fill="#172126" font-size="10" font-weight="400" text-anchor="start" font-family="-apple-system,BlinkMacSystemFont,Segoe UI,Arial,sans-serif">angle 0.46 rad</text>
<text x="369.00" y="226.00" fill="#5a6669" font-size="10" font-weight="400" text-anchor="start" font-family="-apple-system,BlinkMacSystemFont,Segoe UI,Arial,sans-serif">Bars share a scale within each feature column.</text>
</svg>
